<?xml version="1.0" standalone="no"?>
<!DOCTYPE svg PUBLIC "-//W3C//DTD SVG 20010904//EN"
 "http://www.w3.org/TR/2001/REC-SVG-20010904/DTD/svg10.dtd">
<svg version="1.0" xmlns="http://www.w3.org/2000/svg"
 width="1024.000000pt" height="1024.000000pt" viewBox="0 0 1024.000000 1024.000000"
 preserveAspectRatio="xMidYMid meet">

<g transform="translate(0.000000,1024.000000) scale(0.100000,-0.100000)"
fill="#000000" stroke="none">
<path d="M0 5120 l0 -5120 5120 0 5120 0 0 5120 0 5120 -5120 0 -5120 0 0
-5120z m6082 4446 c9 0 15 -2 13 -5 -3 -2 5 -9 18 -16 12 -6 21 -18 19 -27 -1
-8 5 -21 13 -28 8 -7 15 -18 15 -26 0 -23 47 -63 59 -51 8 8 11 8 11 -1 0 -13
-71 -52 -94 -52 -14 0 -29 -27 -25 -46 5 -28 -2 -36 -28 -30 -16 3 -22 3 -15
0 6 -3 12 -12 12 -20 0 -11 -9 -14 -32 -12 -20 2 -32 8 -30 16 2 11 -2 13 -38
16 -8 1 -14 7 -13 14 2 6 -6 16 -17 22 -26 14 -75 60 -64 60 5 0 4 4 -2 8 -16
10 -26 60 -14 67 6 4 8 16 4 27 -4 15 -3 18 6 13 9 -5 11 -4 6 4 -4 7 2 20 16
32 13 11 16 17 8 13 -12 -5 -12 -4 -3 6 17 18 73 29 118 22 22 -3 48 -6 57 -6z
m698 -352 c0 -20 -23 -17 -37 5 -10 15 -10 21 0 24 15 6 37 -11 37 -29z m55
-4 c3 -5 -3 -10 -14 -10 -12 0 -21 5 -21 10 0 6 6 10 14 10 8 0 18 -4 21 -10z
m-10 -40 c3 -5 -1 -10 -9 -10 -9 0 -16 5 -16 10 0 6 4 10 9 10 6 0 13 -4 16
-10z m65 -25 c0 -13 -4 -14 -20 -5 -11 6 -20 13 -20 15 0 3 9 5 20 5 11 0 20
-7 20 -15z m-2320 -1005 c-10 -7 3 -9 45 -6 l60 5 -58 -11 c-32 -6 -60 -8 -63
-5 -9 8 5 27 19 27 7 0 6 -4 -3 -10z m147 4 c-3 -3 -12 -4 -19 -1 -8 3 -5 6 6
6 11 1 17 -2 13 -5z m878 -22 c429 -68 824 -210 1176 -424 193 -118 386 -276
579 -474 141 -145 217 -236 312 -374 188 -272 315 -529 412 -829 85 -263 123
-477 132 -746 6 -157 5 -172 -12 -193 -38 -46 -153 -34 -169 18 -2 8 -9 78
-15 155 -22 283 -63 492 -140 725 -171 516 -504 997 -915 1322 -116 92 -265
187 -484 310 -83 47 -268 124 -401 169 -297 99 -605 149 -914 149 -488 0 -964
-113 -1371 -324 -278 -145 -460 -280 -706 -526 -255 -254 -383 -434 -545 -762
-171 -348 -260 -671 -305 -1098 -6 -63 -16 -123 -21 -133 -14 -27 -75 -50
-115 -42 -58 11 -67 37 -60 184 11 223 44 403 128 694 80 278 171 487 317 727
224 370 459 625 847 921 268 205 614 367 1045 488 262 75 409 90 795 86 242
-2 325 -7 430 -23z m-1068 -8 c-3 -3 -12 -4 -19 -1 -8 3 -5 6 6 6 11 1 17 -2
13 -5z m-1147 -125 c0 -5 -4 -7 -10 -4 -6 4 -10 -5 -10 -21 0 -32 -5 -29 -14
9 -5 23 -3 27 14 27 11 0 20 -5 20 -11z m1865 -892 c70 3 165 -14 165 -29 0
-7 36 -9 114 -4 104 6 117 5 133 -12 16 -17 71 -37 178 -64 22 -6 49 -14 60
-18 67 -26 113 -40 128 -40 9 0 17 -4 17 -9 0 -5 14 -12 31 -16 17 -4 42 -13
57 -21 15 -8 32 -14 37 -14 6 0 30 -14 54 -30 24 -17 63 -35 85 -41 54 -14
143 -65 181 -102 17 -16 79 -61 139 -99 149 -96 285 -233 346 -348 40 -76 45
-92 45 -152 0 -76 10 -84 63 -51 27 18 35 26 52 53 7 12 18 5 58 -37 34 -35
62 -55 91 -63 45 -12 47 -16 26 -44 -8 -11 -15 -31 -15 -44 0 -18 -4 -22 -19
-17 -14 4 -25 -3 -40 -24 -23 -32 -27 -68 -10 -104 13 -30 82 -75 126 -83 18
-3 31 -10 28 -14 -3 -5 -14 -6 -25 -3 -25 7 -28 -22 -2 -32 15 -7 13 -9 -8
-15 -23 -6 -25 -10 -22 -58 l3 -52 -35 0 c-19 0 -41 -3 -50 -6 -11 -4 -16 0
-16 12 -1 18 -1 18 -11 1 -8 -13 -8 -31 0 -60 7 -31 7 -43 -2 -49 -15 -9 -36
10 -22 20 6 4 10 14 9 22 -3 39 -6 44 -14 20 -8 -25 -8 -25 -9 -2 -1 13 -6 33
-12 44 -8 15 -8 27 -1 44 10 20 9 22 -10 19 -29 -6 -31 -10 -19 -33 6 -12 11
-29 11 -39 0 -15 -3 -14 -16 6 -12 17 -19 20 -28 11 -8 -9 -6 -16 11 -29 21
-18 21 -18 3 -48 -28 -47 -42 -51 -38 -12 3 33 2 34 -35 34 -32 0 -41 6 -58
34 -13 22 -25 31 -35 27 -9 -3 -19 -6 -24 -6 -5 0 -16 -7 -25 -16 -15 -15 -17
-15 -35 1 -11 10 -20 22 -20 27 0 5 7 2 16 -6 20 -21 26 -20 54 4 13 11 27 20
33 20 5 0 4 7 -3 15 -14 17 -4 39 13 28 8 -5 8 -2 -1 9 -7 9 -10 27 -6 47 4
18 2 31 -4 31 -14 0 -23 -27 -15 -46 3 -8 0 -26 -7 -40 -17 -31 -42 -32 -35
-1 2 12 8 35 11 51 5 20 4 27 -5 22 -6 -4 -11 0 -11 9 0 11 5 15 16 11 8 -3
13 -2 10 3 -3 5 1 11 8 14 8 3 17 1 19 -6 6 -17 17 -4 23 27 4 24 2 26 -14 17
-20 -11 -21 -6 -7 58 8 31 9 33 22 16 12 -18 13 -18 13 2 0 11 8 24 18 28 16
6 16 7 0 16 -22 12 -23 48 -2 56 15 5 15 7 0 15 -11 6 -15 16 -11 29 5 15 1
19 -20 19 -21 0 -26 -4 -21 -16 5 -14 4 -15 -9 -4 -8 7 -15 18 -15 25 0 36
-244 205 -297 205 -21 0 -133 52 -133 62 0 4 -9 8 -19 8 -11 0 -23 5 -26 10
-3 6 -15 10 -25 10 -10 0 -31 5 -47 12 -15 6 -31 11 -35 10 -5 -1 -8 2 -8 6 0
4 -21 14 -47 21 -27 8 -52 17 -58 21 -5 5 -44 18 -85 29 -41 12 -86 26 -100
30 -14 5 -52 17 -85 26 -33 10 -64 21 -70 25 -5 4 -53 17 -105 30 -52 12 -129
31 -170 41 -41 11 -83 21 -93 24 -9 2 -22 7 -27 10 -19 12 -62 16 -55 5 3 -5
4 -10 1 -10 -2 0 -11 -3 -19 -6 -9 -3 -16 2 -19 13 -4 14 -22 21 -82 31 -42 8
-74 17 -72 21 3 4 -4 8 -15 8 -10 1 -19 -3 -19 -9 0 -6 -3 -8 -7 -4 -5 4 -8
13 -8 19 0 6 -16 14 -37 18 -28 4 -35 2 -31 -8 4 -9 -2 -12 -18 -9 -13 3 -32
5 -42 5 -10 1 -16 4 -14 9 3 4 -15 8 -38 8 -24 1 -52 5 -62 9 -10 4 -36 10
-58 12 -22 2 -77 13 -121 24 -78 18 -234 34 -234 23 0 -3 5 -15 11 -27 12 -22
12 -22 -9 -4 -11 11 -26 16 -32 12 -6 -3 -9 -1 -8 7 2 8 -6 13 -19 12 -12 0
-19 4 -16 9 4 6 -3 8 -16 4 -15 -4 -29 2 -46 21 -24 26 -25 26 -39 7 -14 -20
-15 -19 -24 5 -9 22 -11 23 -17 8 -4 -10 -5 -25 -1 -33 3 -8 1 -15 -5 -15 -16
0 -2 -48 21 -72 25 -27 17 -38 -28 -39 l-37 -1 35 -13 35 -13 -32 -1 c-18 -1
-53 -11 -78 -23 -31 -15 -48 -19 -53 -12 -4 6 -16 16 -27 22 -18 11 -17 12 9
8 26 -5 28 -3 22 22 -4 15 -9 46 -13 70 -3 26 -11 42 -19 42 -8 0 -14 5 -14
10 0 12 12 13 43 1 21 -8 29 -5 52 19 24 25 27 34 20 66 -5 31 -4 36 7 27 7
-5 30 -13 50 -16 30 -4 38 -2 43 12 3 10 19 28 37 41 l31 23 -8 -34 c-9 -44
-8 -80 5 -93 7 -7 10 -6 10 3 0 22 112 131 187 181 90 60 211 108 311 121 140
19 227 26 247 20 11 -3 47 -5 80 -4z m845 -166 c0 -6 -4 -12 -8 -15 -5 -3 -9
1 -9 9 0 8 4 15 9 15 4 0 8 -4 8 -9z m-1977 -207 c-7 -3 -9 -13 -6 -22 6 -14
5 -15 -9 -2 -19 17 -14 30 10 29 10 0 12 -3 5 -5z m337 -45 c0 -4 -7 -15 -16
-23 -14 -15 -11 -16 32 -16 40 0 45 -2 34 -15 -7 -8 -17 -15 -23 -15 -6 0 -18
-7 -27 -15 -15 -14 -20 -13 -53 13 l-35 28 29 32 c16 17 29 37 29 44 1 13 30
-19 30 -33z m-316 -30 c-8 -13 -21 -11 -27 5 -4 10 0 12 14 9 10 -3 16 -9 13
-14z m-44 -15 c0 -8 -5 -12 -10 -9 -6 4 -8 11 -5 16 9 14 15 11 15 -7z m-60
-14 c6 -11 22 -23 35 -26 25 -6 43 -43 31 -62 -11 -18 51 -69 77 -63 5 1 6 -3
3 -8 -4 -5 4 -12 16 -14 13 -2 -2 -5 -33 -6 -30 0 -61 -7 -68 -13 -9 -9 -8 -3
2 18 26 50 2 59 -39 15 l-35 -36 26 39 c30 47 30 48 5 71 -11 10 -20 31 -20
47 0 22 -7 31 -32 42 l-33 14 27 1 c18 1 31 -6 38 -19z m878 2 c2 -7 -1 -12
-7 -12 -6 0 -11 6 -11 13 0 9 -3 8 -9 -2 -5 -8 -14 -10 -22 -6 -9 6 -8 10 7
16 23 9 37 6 42 -9z m82 -8 c0 -2 -12 -4 -26 -4 -14 0 -23 4 -20 9 6 8 46 4
46 -5z m-60 -13 c0 -5 -7 -12 -16 -15 -14 -5 -15 -4 -4 9 14 17 20 19 20 6z
m-286 -7 c9 -3 16 -15 16 -26 0 -10 5 -16 10 -13 6 3 10 -1 10 -10 0 -9 5 -13
10 -10 6 3 10 1 10 -6 0 -8 4 -8 15 1 12 10 21 10 41 1 35 -15 37 -14 31 15
-4 23 -2 25 24 19 16 -4 43 -14 60 -22 28 -14 30 -17 14 -26 -9 -5 -33 -7 -52
-4 -28 5 -34 3 -29 -9 3 -8 2 -12 -3 -9 -5 3 -12 1 -16 -5 -9 -14 -62 -12 -68
3 -3 7 -6 5 -6 -5 -1 -15 -5 -16 -26 -8 -22 8 -27 6 -36 -14 -15 -33 6 -73 54
-103 l38 -24 -2 23 c-4 40 1 78 9 78 4 0 13 -4 21 -9 12 -8 12 -12 -2 -26 -21
-21 -21 -34 0 -57 19 -21 58 -23 93 -5 14 8 37 16 50 20 24 6 24 5 5 -9 -23
-17 -80 -34 -115 -34 -20 0 -22 -2 -10 -10 20 -13 127 -13 152 1 16 9 24 7 41
-9 23 -21 87 -56 92 -50 1 2 5 20 9 41 6 30 4 37 -9 37 -15 0 -15 2 -1 15 18
19 26 19 26 1 0 -16 77 -36 140 -36 41 0 61 -14 35 -24 -20 -7 -35 -48 -24
-62 5 -6 7 -19 3 -28 -3 -9 -1 -16 6 -16 6 0 8 6 4 13 -5 9 -4 9 5 1 7 -6 13
-21 14 -33 1 -13 8 -21 19 -21 16 0 79 21 118 38 8 4 35 5 60 2 l45 -5 -62
-13 c-62 -13 -85 -32 -39 -32 33 0 93 -27 106 -47 8 -14 12 -15 17 -5 3 7 15
24 27 38 l21 24 45 -30 c25 -16 50 -30 55 -30 11 1 -20 27 -38 33 -12 4 27 47
42 47 12 0 19 21 13 42 -2 10 -9 15 -16 12 -6 -3 -3 1 6 9 13 10 15 16 6 25
-7 7 -18 12 -25 12 -7 0 -13 5 -13 10 0 23 249 -122 278 -162 7 -10 18 -15 24
-12 7 5 9 1 5 -9 -5 -13 -1 -17 18 -17 13 0 36 -11 52 -24 15 -13 39 -27 53
-31 59 -19 182 -96 187 -118 4 -16 28 -34 41 -29 6 2 12 0 12 -6 0 -14 48 -33
55 -21 4 5 11 7 16 3 6 -3 19 2 30 12 16 15 24 16 58 6 48 -15 131 -61 131
-73 0 -5 6 -9 13 -9 19 0 51 -74 43 -97 -5 -13 -4 -15 4 -7 7 7 20 10 30 7 22
-6 35 -33 16 -33 -8 0 -16 5 -18 12 -3 9 -6 9 -11 1 -5 -7 11 -18 44 -28 27
-9 48 -19 46 -21 -11 -11 -290 91 -357 130 -19 11 -67 48 -107 82 -42 36 -85
65 -105 69 -18 4 -79 25 -136 46 -56 22 -105 39 -108 39 -4 0 -4 -9 -1 -19 2
-10 1 -25 -4 -32 -7 -11 -9 -9 -9 6 0 15 -2 17 -9 6 -6 -8 -14 -10 -22 -5 -20
12 -49 15 -49 5 0 -5 8 -12 17 -15 13 -5 5 -13 -32 -30 l-50 -24 43 -7 c23 -4
42 -11 42 -15 0 -4 -13 -22 -28 -38 -28 -30 -29 -30 -48 -12 -19 19 -20 19
-67 -5 -58 -30 -120 -76 -112 -83 3 -3 11 0 17 6 16 16 38 15 38 -1 0 -7 9
-18 20 -25 19 -12 20 -11 14 26 -5 31 -3 39 10 39 8 0 13 -5 9 -10 -3 -5 1
-20 8 -34 10 -18 19 -23 36 -18 16 4 25 -1 33 -15 7 -13 21 -20 40 -20 16 0
31 -4 34 -9 3 -5 19 -11 35 -13 26 -4 30 -1 35 25 4 18 0 42 -9 59 -10 21 -12
36 -5 48 14 25 13 90 -1 90 -6 0 -1 9 12 19 28 23 35 20 20 -7 -9 -17 -7 -21
11 -25 12 -4 19 -9 15 -13 -4 -4 3 -15 14 -25 l21 -18 -21 -13 c-12 -7 -21
-18 -21 -25 0 -18 4 -17 39 16 26 24 37 28 81 26 27 -1 50 2 50 6 0 5 -4 9
-10 9 -5 0 -10 5 -10 10 0 16 20 12 27 -6 3 -9 -6 -37 -20 -64 -31 -57 -29
-92 7 -129 14 -15 26 -33 26 -40 0 -7 6 -11 14 -8 8 3 17 1 20 -6 2 -7 5 -2 5
9 1 12 -6 24 -14 28 -16 6 -21 56 -5 56 5 0 7 -6 4 -13 -3 -8 4 -13 18 -14 12
-1 28 -9 34 -18 10 -14 14 -12 25 15 17 36 36 39 49 6 5 -13 14 -27 20 -31 7
-4 18 -21 26 -39 13 -30 13 -30 14 -6 1 23 2 23 10 5 5 -11 9 -32 9 -47 1 -16
5 -28 10 -28 5 0 16 -26 24 -57 8 -32 15 -48 16 -35 1 12 6 22 11 22 15 0 12
-44 -5 -66 -20 -27 -19 -40 3 -21 24 22 32 21 32 -3 0 -14 -7 -20 -21 -20 -16
0 -20 -5 -16 -20 3 -11 1 -23 -4 -26 -5 -3 -9 -15 -10 -27 0 -17 -4 -14 -13
12 -10 29 -14 32 -19 17 -4 -10 -3 -24 3 -31 8 -10 8 -15 0 -20 -7 -4 -18 2
-26 14 -20 28 -32 27 -40 -4 -8 -30 -40 -34 -49 -5 -3 11 -9 21 -13 21 -42 7
-67 6 -73 -2 -3 -6 -11 3 -17 20 -6 17 -17 31 -24 31 -10 0 -10 -2 1 -9 8 -5
9 -11 3 -15 -5 -3 -12 1 -16 9 -3 8 -15 15 -26 15 -11 0 -20 7 -20 15 0 8 -4
15 -10 15 -5 0 -10 -4 -10 -10 0 -20 -19 -9 -23 13 -4 22 -4 22 -15 -3 -11
-25 -11 -25 -18 -3 -5 19 -11 21 -38 16 -41 -8 -37 -8 -69 5 -16 7 -34 12 -41
12 -20 0 -27 12 -15 27 6 7 8 13 3 14 -31 2 -47 10 -59 26 -10 14 -16 15 -26
6 -6 -6 -17 -10 -23 -8 -6 2 -23 6 -38 9 -20 5 -26 11 -23 26 4 21 -16 41 -23
22 -5 -17 -22 -15 -22 3 0 8 5 15 11 15 5 0 8 4 4 10 -3 5 -12 7 -19 4 -9 -3
-17 3 -21 15 -6 21 -35 30 -35 11 0 -5 -5 -10 -11 -10 -6 0 -9 7 -6 15 7 18 5
19 -61 38 l-52 16 -53 -76 c-28 -43 -69 -95 -89 -118 -97 -107 -256 -125 -357
-39 -53 45 -77 101 -101 225 -46 242 -105 358 -230 454 -117 90 -209 107 -292
54 -65 -42 -197 -185 -267 -289 -79 -118 -194 -384 -193 -445 0 -22 -1 -25 -7
-11 -6 15 -10 11 -26 -24 -32 -71 -97 -110 -187 -110 -71 0 -124 34 -159 102
-21 42 -26 152 -8 227 5 24 8 46 5 48 -2 3 -29 -8 -60 -23 -61 -30 -110 -73
-132 -117 -14 -25 -14 -31 0 -52 18 -28 67 -41 95 -26 11 6 32 11 48 11 l28 0
-32 -20 c-35 -21 -42 -37 -19 -46 9 -3 14 -18 13 -38 -2 -32 -2 -32 -47 -29
-56 5 -94 -14 -98 -48 -3 -24 -6 -26 -43 -23 -22 2 -44 6 -48 9 -5 2 -14 -1
-20 -9 -9 -11 -9 -15 1 -19 7 -3 0 -6 -15 -6 -16 -1 -26 -5 -23 -9 3 -5 -4
-14 -14 -22 -10 -8 -16 -18 -12 -24 4 -6 7 -13 8 -16 5 -28 19 -40 38 -35 15
5 17 4 7 -3 -11 -8 -4 -15 30 -34 l44 -23 -42 -3 c-23 -2 -47 -10 -55 -19 -11
-14 -11 -16 2 -8 8 5 -1 -10 -20 -32 -90 -105 -93 -112 -72 -150 19 -34 32
-28 21 9 -12 42 -4 48 10 7 18 -52 16 -54 -56 -53 -86 2 -103 -7 -103 -51 0
-19 -4 -35 -9 -35 -5 0 -41 15 -79 33 -68 33 -69 34 -56 58 7 13 13 34 14 47
0 21 3 23 30 17 26 -6 31 -3 41 22 18 47 40 243 37 333 -3 119 4 130 90 130
l67 0 65 72 c157 175 246 255 335 299 75 37 88 48 104 84 65 147 266 430 387
545 95 90 222 162 252 144 28 -18 128 -41 227 -53 202 -23 206 -23 165 14 -24
22 -25 41 -5 88 18 43 11 65 -22 73 -34 9 -69 -9 -87 -44 -8 -16 -23 -32 -32
-36 -10 -4 -7 4 10 25 14 17 26 35 26 40 0 16 52 59 71 59 9 0 24 -3 33 -6z
m737 -55 c1 -5 3 -13 4 -19 1 -5 3 -12 4 -15 0 -3 7 0 15 7 8 7 12 17 9 22 -7
10 18 27 29 20 4 -3 8 -10 8 -15 0 -6 -4 -8 -9 -5 -5 3 -11 -9 -15 -27 -4 -17
-16 -39 -28 -48 -22 -17 -22 -17 18 -28 21 -6 45 -11 52 -11 6 0 12 -4 12 -10
0 -13 -46 -7 -97 15 -48 19 -50 23 -27 67 13 24 14 36 5 50 -9 14 -8 16 4 12
8 -4 16 -10 16 -15z m-104 -3 c-3 -8 -1 -17 6 -20 7 -2 2 -5 -10 -5 -25 -1
-29 9 -11 27 16 16 21 15 15 -2z m-864 -30 c7 8 37 -20 37 -35 0 -5 -5 -13
-10 -16 -6 -4 -10 -3 -9 2 6 37 -11 43 -41 13 l-20 -20 0 42 c0 39 1 40 18 25
10 -10 21 -14 25 -11z m1115 -56 c10 0 24 -6 31 -12 11 -11 12 -10 6 1 -6 11
-4 13 8 8 8 -3 21 1 27 9 18 20 29 17 23 -6 -4 -13 1 -26 13 -35 18 -14 18
-14 -1 -15 -11 -1 -29 -4 -40 -6 -23 -6 -85 -8 -90 -2 -1 1 -6 23 -9 48 -5 35
-4 41 4 28 6 -10 19 -18 28 -18z m-1118 -10 c-8 -5 -22 -9 -30 -9 -10 0 -8 3
5 9 27 12 43 12 25 0z m1310 -29 c0 -5 -6 -14 -14 -20 -11 -9 -16 -9 -21 0 -4
6 -1 15 6 20 18 11 29 11 29 0z m-535 -26 c0 -14 -9 -21 -32 -26 -38 -7 -40
-2 -15 29 20 26 47 25 47 -3z m-185 6 c0 -5 -14 -11 -30 -13 -33 -5 -29 7 5
15 11 3 21 5 23 6 1 0 2 -3 2 -8z m840 -15 c-6 -6 -18 -5 -32 2 -22 10 -21 10
9 9 19 -1 28 -6 23 -11z m74 -35 c-2 -3 -12 3 -22 13 -16 17 -16 18 5 5 12 -7
20 -15 17 -18z m133 -36 c0 -8 -7 -17 -14 -19 -8 -3 -11 -1 -8 4 3 6 0 10 -7
11 -7 0 -4 4 7 9 11 5 20 9 21 9 0 1 1 -6 1 -14z m-387 -27 c0 -6 -6 -5 -15 2
-8 7 -15 14 -15 16 0 2 7 1 15 -2 8 -4 15 -11 15 -16z m50 12 c0 -5 -5 -10
-11 -10 -5 0 -7 5 -4 10 3 6 8 10 11 10 2 0 4 -4 4 -10z m540 0 c0 -5 -4 -10
-10 -10 -5 0 -10 5 -10 10 0 6 5 10 10 10 6 0 10 -4 10 -10z m-413 -62 c-3 -7
-5 -2 -5 12 0 14 2 19 5 13 2 -7 2 -19 0 -25z m473 28 c0 -11 -19 -15 -25 -6
-3 5 1 10 9 10 9 0 16 -2 16 -4z m45 -6 c3 -5 1 -10 -4 -10 -6 0 -11 5 -11 10
0 6 2 10 4 10 3 0 8 -4 11 -10z m-222 -31 c-6 -6 -17 -8 -24 -3 -9 5 -8 9 7
14 23 9 31 3 17 -11z m82 -17 c0 -12 -4 -22 -10 -21 -5 1 -9 6 -7 11 1 6 -3
17 -10 25 -10 13 -9 15 7 12 13 -3 20 -12 20 -27z m-265 -2 c0 -5 -4 -10 -10
-10 -5 0 -10 5 -10 10 0 6 5 10 10 10 6 0 10 -4 10 -10z m480 -38 c0 -8 -13
-2 -30 15 -16 15 -30 29 -30 30 0 1 13 -6 30 -15 16 -9 30 -23 30 -30z m-315
28 c3 -5 1 -10 -4 -10 -6 0 -11 5 -11 10 0 6 2 10 4 10 3 0 8 -4 11 -10z
m-125 -10 c0 -5 -2 -10 -4 -10 -3 0 -8 5 -11 10 -3 6 -1 10 4 10 6 0 11 -4 11
-10z m505 -20 c3 -5 1 -10 -4 -10 -6 0 -11 5 -11 10 0 6 2 10 4 10 3 0 8 -4
11 -10z m-227 -56 c-6 -31 -23 -18 -26 21 -3 39 -3 40 13 17 9 -12 15 -29 13
-38z m862 28 c0 -11 -45 -32 -68 -32 -10 0 -2 8 18 19 41 22 50 24 50 13z
m-675 -56 c14 -6 16 -10 7 -13 -15 -6 -52 24 -52 41 0 6 6 4 13 -5 7 -8 21
-19 32 -23z m70 5 c3 -5 1 -12 -5 -16 -5 -3 -10 1 -10 9 0 18 6 21 15 7z m-5
-102 c0 -6 -4 -7 -10 -4 -5 3 -10 11 -10 16 0 6 5 7 10 4 6 -3 10 -11 10 -16z
m240 11 c0 -5 -5 -10 -11 -10 -5 0 -7 5 -4 10 3 6 8 10 11 10 2 0 4 -4 4 -10z
m0 -32 c0 -5 8 -4 18 1 26 14 62 2 62 -20 0 -11 -5 -19 -11 -19 -5 0 -7 5 -3
12 4 7 3 8 -5 4 -6 -4 -9 -17 -6 -29 2 -12 2 -16 -1 -9 -8 18 -27 15 -20 -4 4
-11 1 -14 -11 -12 -9 2 -17 12 -19 23 -2 11 -10 25 -18 31 -20 14 -21 31 -1
31 8 0 15 -4 15 -9z m-50 -61 c0 -4 -6 -2 -14 5 -8 7 -12 17 -9 22 5 8 23 -12
23 -27z m-520 -6 c-1 -21 -14 -51 -23 -51 -15 0 -47 31 -47 46 0 7 8 14 18 16
20 5 52 -2 52 -11z m530 -51 c0 -5 -2 -10 -4 -10 -3 0 -8 5 -11 10 -3 6 -1 10
4 10 6 0 11 -4 11 -10z m-363 -92 c-3 -8 -6 -5 -6 6 -1 11 2 17 5 13 3 -3 4
-12 1 -19z m23 -52 c0 -2 -7 -7 -16 -10 -8 -3 -12 -2 -9 4 6 10 25 14 25 6z
m150 -44 c0 -4 -9 -8 -19 -8 -11 0 -17 4 -15 8 3 4 12 8 20 8 8 0 14 -4 14 -8z
m340 -23 c0 -5 -4 -9 -10 -9 -5 0 -10 7 -10 16 0 8 5 12 10 9 6 -3 10 -10 10
-16z m-2307 -6 c75 -14 96 -21 92 -32 -39 -100 -69 -340 -56 -436 8 -58 15
-73 88 -178 48 -70 53 -84 53 -131 0 -87 -59 -154 -141 -163 -114 -11 -176
101 -141 257 17 77 18 127 7 238 -6 53 -9 61 -21 51 -11 -9 -14 -8 -14 8 0 26
-29 51 -77 69 -33 11 -34 13 -12 14 14 0 42 -11 62 -24 22 -15 34 -19 30 -10
-3 8 -9 14 -14 14 -14 0 -11 28 4 33 8 4 7 6 -3 6 -9 1 -22 -5 -30 -11 -8 -7
-7 -4 3 8 9 11 17 26 17 33 0 7 5 9 11 6 7 -5 9 10 8 42 -3 70 12 193 24 193
5 0 4 7 -3 15 -16 20 -9 20 113 -2z m2284 -19 c-3 -3 -12 -4 -19 -1 -8 3 -5 6
6 6 11 1 17 -2 13 -5z m-283 -40 c3 -8 2 -12 -4 -9 -6 3 -10 10 -10 16 0 14 7
11 14 -7z m122 -65 c-6 -33 2 -43 21 -23 8 8 19 12 24 9 5 -4 9 -1 9 4 0 6 7
11 15 11 21 0 21 -122 0 -143 -32 -33 -64 -1 -80 80 -4 22 -19 42 -46 62 l-40
29 51 -1 c51 -1 52 -1 46 -28z m-187 -37 c0 -24 -1 -25 -9 -7 -12 28 -12 47 0
40 6 -3 10 -18 9 -33z m411 -64 c0 -5 -7 -8 -15 -8 -8 0 -15 -7 -15 -16 0 -14
2 -15 17 -3 14 12 16 12 11 -1 -6 -18 -44 -20 -40 -2 1 7 -2 21 -8 32 -7 13
-7 28 1 47 l11 28 18 -35 c11 -19 19 -38 20 -42z m40 43 c0 -10 -3 -21 -6 -24
-13 -12 -21 3 -17 28 6 27 23 24 23 -4z m61 -49 c16 -11 17 -17 8 -28 -6 -7
-15 -11 -20 -8 -5 3 -9 1 -9 -4 0 -6 -9 -8 -19 -5 -17 4 -18 7 -6 31 9 17 11
31 5 43 -7 12 -6 19 3 22 6 2 14 -5 15 -17 2 -11 13 -27 23 -34z m-197 -92
c-26 -57 -54 -95 -54 -72 0 6 5 14 10 17 6 3 10 11 10 16 0 6 -4 8 -9 5 -5 -4
-4 5 2 19 7 14 17 25 24 25 6 0 9 9 5 22 -3 12 -1 19 5 15 5 -3 10 1 10 9 0
10 -7 14 -19 11 -19 -5 -22 1 -12 27 5 14 8 14 22 -1 16 -16 17 -15 22 8 4 21
5 20 8 -8 2 -20 -7 -56 -24 -93z m-977 74 c-3 -3 -12 -4 -19 -1 -8 3 -5 6 6 6
11 1 17 -2 13 -5z m-1534 -61 c-7 -2 -21 -2 -30 0 -10 3 -4 5 12 5 17 0 24 -2
18 -5z m451 -70 c-3 -27 -8 -49 -9 -51 -6 -7 -64 12 -59 19 3 5 1 9 -4 9 -6 0
-12 7 -16 15 -4 13 -2 13 14 5 24 -13 30 -13 30 0 0 6 -12 16 -27 23 l-27 12
39 6 c22 3 46 7 53 8 10 1 12 -10 6 -46z m1798 6 c6 -4 -7 -18 -28 -33 -50
-34 -65 -33 -28 1 19 18 24 28 16 31 -10 3 -9 9 5 24 17 19 18 19 22 2 2 -11
8 -22 13 -25z m15 19 c-3 -8 -6 -5 -6 6 -1 11 2 17 5 13 3 -3 4 -12 1 -19z
m168 -87 l-27 -26 13 25 c7 14 14 30 15 35 3 27 5 29 15 11 9 -15 6 -23 -16
-45z m-415 39 c0 -5 -4 -10 -10 -10 -5 0 -10 5 -10 10 0 6 5 10 10 10 6 0 10
-4 10 -10z m90 -10 c0 -5 -5 -10 -11 -10 -5 0 -7 5 -4 10 3 6 8 10 11 10 2 0
4 -4 4 -10z m-1740 -14 c0 -2 -7 -7 -16 -10 -8 -3 -12 -2 -9 4 6 10 25 14 25
6z m1855 -84 c-3 -3 -11 0 -18 7 -9 10 -8 11 6 5 10 -3 15 -9 12 -12z m-3145
-2 c0 -5 -7 -10 -16 -10 -8 0 -12 5 -9 10 3 6 10 10 16 10 5 0 9 -4 9 -10z
m3227 -2 c-16 -10 -55 -10 -61 0 -2 4 13 7 34 7 22 0 33 -3 27 -7z m-2690 -30
c-3 -8 -6 -5 -6 6 -1 11 2 17 5 13 3 -3 4 -12 1 -19z m-707 2 c0 -5 -5 -10
-11 -10 -5 0 -7 5 -4 10 3 6 8 10 11 10 2 0 4 -4 4 -10z m628 -16 c-2 -10 3
-19 10 -21 6 -3 12 1 12 7 0 10 3 10 15 0 8 -6 18 -10 22 -7 4 3 9 -6 9 -19 2
-24 -10 -32 -21 -14 -3 6 -26 15 -51 21 -45 12 -60 29 -24 29 11 0 20 5 20 10
0 6 2 10 5 10 3 0 5 -7 3 -16z m2667 -337 c48 -48 53 -79 21 -126 -52 -75 -80
-94 -145 -99 -55 -4 -60 -2 -77 22 -11 17 -19 54 -22 100 -7 113 12 134 127
135 59 1 65 -1 96 -32z m-2483 -37 c21 -6 42 -19 48 -30 5 -10 10 -66 10 -123
0 -119 -2 -117 97 -117 45 0 54 -4 78 -32 23 -28 27 -39 23 -80 -3 -31 -13
-57 -27 -72 -11 -12 -19 -24 -17 -27 2 -2 -25 -5 -61 -6 -36 -1 -71 -4 -78 -7
-9 -3 -13 -38 -14 -121 -2 -148 7 -225 30 -256 16 -21 26 -24 86 -24 65 0 68
-1 82 -30 8 -16 16 -51 19 -76 5 -59 -18 -83 -97 -100 -122 -25 -260 12 -312
84 -49 67 -60 123 -66 332 l-6 191 -57 27 c-41 19 -61 35 -70 56 -26 65 20
132 100 145 l41 6 -2 110 c-2 115 4 134 46 150 29 12 103 12 147 0z m1493 -4
c18 -8 38 -23 44 -34 6 -12 11 -80 11 -162 l0 -141 33 25 c52 40 114 58 197
58 89 0 143 -19 215 -73 155 -117 194 -400 82 -591 -34 -58 -117 -135 -172
-159 -93 -41 -241 -34 -316 15 l-35 24 -22 -23 c-39 -40 -194 -47 -231 -10
-11 10 -16 34 -16 73 0 31 1 263 3 515 2 534 -6 497 107 497 36 0 81 -6 100
-14z m-3788 -19 c15 -14 19 -39 21 -131 l4 -114 80 -4 c69 -3 82 -6 99 -27 27
-33 25 -99 -4 -142 -22 -33 -26 -34 -97 -39 l-75 -5 0 -182 c0 -178 0 -182 24
-207 20 -22 33 -26 78 -26 45 0 55 -4 69 -25 9 -14 19 -46 22 -71 4 -37 1 -49
-18 -69 -33 -35 -116 -50 -205 -38 -91 13 -141 37 -172 84 -45 69 -53 117 -53
330 l0 198 -42 11 c-24 7 -55 23 -70 38 -61 57 -19 157 70 169 l42 6 0 111 c0
151 5 157 132 153 59 -2 82 -6 95 -20z m5265 -15 c9 -9 14 -50 16 -122 l4
-110 53 0 c84 0 114 -9 130 -41 31 -59 9 -150 -41 -169 -14 -6 -53 -10 -86
-10 l-61 0 6 -174 c4 -99 12 -185 18 -200 14 -30 65 -48 110 -39 26 5 31 2 44
-30 21 -50 20 -120 -3 -140 -22 -20 -92 -36 -158 -37 -123 0 -214 58 -247 159
-14 43 -17 91 -17 255 l0 202 -47 13 c-89 23 -124 82 -88 150 14 29 76 61 115
61 19 0 20 7 20 98 0 101 6 118 45 141 27 15 170 10 187 -7z m-4438 -227 c81
-17 143 -51 186 -102 53 -65 58 -103 61 -410 l2 -278 -33 -22 c-66 -45 -200
-29 -200 24 0 18 -4 17 -76 -18 -160 -79 -357 -33 -426 101 -35 65 -39 171 -9
235 62 137 243 191 472 143 9 -2 15 8 17 30 3 25 -3 39 -28 63 -30 30 -32 31
-113 27 -68 -3 -93 -9 -147 -36 -36 -18 -79 -32 -95 -32 -53 0 -114 84 -99
134 33 111 286 184 488 141z m5275 1 c103 -28 186 -102 223 -201 30 -79 33
-236 5 -278 l-17 -27 -255 0 c-157 0 -255 -4 -255 -10 0 -26 35 -78 68 -100
30 -21 47 -25 112 -25 67 0 82 3 119 28 45 30 50 30 134 -5 58 -25 69 -55 41
-107 -46 -85 -161 -125 -338 -119 -118 4 -168 19 -248 74 -89 62 -150 202
-151 349 -2 218 101 370 283 419 71 19 210 20 279 2z m-4296 -22 c27 -11 63
-31 80 -45 30 -25 31 -27 19 -65 -15 -50 -73 -120 -107 -128 -20 -5 -40 2 -83
29 -48 29 -66 35 -115 35 -66 0 -97 -12 -97 -39 0 -33 37 -53 156 -82 169 -41
229 -76 265 -154 56 -120 -7 -272 -138 -337 -59 -29 -76 -32 -179 -36 -227 -9
-364 49 -364 153 0 34 33 81 72 101 29 15 33 14 99 -16 79 -36 160 -48 212
-31 43 15 61 34 52 59 -7 25 -37 36 -144 57 -161 32 -218 65 -257 149 -26 57
-32 140 -13 197 27 78 95 137 192 164 74 21 284 14 350 -11z m1059 -1 c20 -18
45 -83 124 -316 31 -92 58 -166 60 -165 1 2 33 78 69 168 94 231 130 306 153
319 28 15 151 14 182 -2 14 -7 26 -23 28 -35 4 -27 -53 -173 -169 -433 -45
-101 -107 -243 -139 -315 -91 -212 -147 -289 -234 -330 -60 -28 -156 -32 -230
-10 -63 19 -86 41 -86 81 0 45 29 131 50 150 16 15 21 15 55 1 59 -25 121 -21
152 10 19 19 24 32 20 53 -3 15 -66 182 -141 372 -74 190 -137 361 -141 380
-10 52 18 81 86 90 70 9 140 1 161 -18z m4140 -2 c71 -27 111 -71 101 -109
-13 -57 -83 -132 -121 -132 -8 0 -41 16 -73 36 -49 31 -68 37 -114 37 -63 0
-96 -21 -88 -54 8 -27 23 -34 162 -68 130 -32 198 -64 229 -109 68 -97 53
-243 -35 -328 -72 -70 -132 -88 -298 -89 -159 0 -234 16 -286 63 -57 51 -35
147 41 187 27 14 33 13 96 -17 118 -55 260 -49 279 13 12 36 -16 49 -156 73
-194 33 -251 70 -284 178 -48 164 33 292 215 338 19 5 89 8 155 6 95 -2 132
-8 177 -25z m-2250 8 c28 -7 40 -17 45 -37 5 -15 8 -190 8 -390 0 -423 9 -392
-111 -392 -83 0 -117 12 -133 47 -7 16 -11 141 -11 382 0 328 1 359 18 374 29
26 120 34 184 16z m-3571 -1127 c15 -9 60 -53 100 -96 138 -148 367 -333 547
-443 118 -71 361 -192 500 -247 205 -82 529 -160 792 -190 153 -18 460 -21
595 -6 389 44 758 162 1068 342 285 165 436 280 671 508 l154 150 52 0 c44 0
56 -4 81 -30 45 -45 40 -56 -97 -212 -158 -178 -464 -432 -665 -553 -109 -65
-354 -185 -479 -235 -202 -81 -421 -139 -660 -177 -180 -28 -664 -25 -855 5
-593 94 -1085 300 -1513 635 -196 153 -431 396 -448 463 -10 39 3 70 38 87 43
21 87 21 119 -1z"/>
<path d="M4330 6806 c0 -2 7 -7 16 -10 8 -3 12 -2 9 4 -6 10 -25 14 -25 6z"/>
<path d="M6886 6323 c-6 -14 -5 -15 5 -6 7 7 10 15 7 18 -3 3 -9 -2 -12 -12z"/>
<path d="M7207 6003 c-14 -13 -6 -18 36 -20 l42 -1 -34 14 c-39 16 -36 16 -44
7z"/>
<path d="M7120 5653 c0 -5 4 -15 10 -23 11 -18 25 -7 17 15 -6 15 -27 21 -27
8z"/>
<path d="M7160 5529 c0 -5 5 -7 10 -4 6 3 10 8 10 11 0 2 -4 4 -10 4 -5 0 -10
-5 -10 -11z"/>
<path d="M5153 6238 c-33 -16 -28 -25 15 -30 45 -6 47 -5 32 21 -12 24 -16 24
-47 9z"/>
<path d="M5577 6092 c-24 -27 -21 -33 14 -27 20 4 40 0 55 -10 13 -8 30 -15
39 -15 19 0 19 -14 0 -30 -21 -17 -19 -33 3 -21 15 8 17 4 17 -27 0 -19 5 -37
11 -39 9 -3 24 25 55 104 9 24 -3 39 -23 27 -7 -4 -8 -3 -4 4 5 8 -2 12 -20
12 l-28 0 30 -31 c22 -24 24 -29 8 -21 -11 6 -26 18 -34 26 -7 9 -17 16 -22
16 -5 0 -21 11 -36 25 -32 30 -43 31 -65 7z"/>
<path d="M5988 6052 c-19 -4 -23 -14 -11 -25 3 -4 12 -2 19 4 8 6 21 9 29 5 8
-3 15 -2 15 3 0 11 -29 18 -52 13z"/>
<path d="M6082 6005 c4 -5 3 -14 -3 -21 -7 -8 -6 -14 2 -20 7 -4 9 -3 5 4 -10
17 13 25 31 10 12 -9 15 -9 9 -1 -4 7 -17 18 -29 24 -12 7 -19 8 -15 4z"/>
<path d="M5765 5949 c-4 -6 -5 -12 -2 -15 2 -3 7 2 10 11 7 17 1 20 -8 4z"/>
<path d="M6017 5648 c-6 -42 -1 -48 14 -14 9 19 9 30 2 37 -7 7 -12 0 -16 -23z"/>
<path d="M3165 4940 c-4 -6 -11 -8 -16 -5 -5 4 -9 2 -9 -4 0 -5 -12 -24 -26
-41 -28 -32 -30 -47 -4 -26 33 26 83 86 73 86 -7 0 -15 -5 -18 -10z"/>
<path d="M2934 4702 c-10 -15 -8 -18 6 -19 13 -1 16 4 13 18 -6 23 -6 23 -19
1z"/>
<path d="M5649 4197 c-19 -12 -44 -42 -57 -67 -20 -39 -23 -57 -20 -137 2 -74
7 -97 24 -120 66 -90 190 -100 260 -21 67 74 57 256 -17 325 -53 48 -135 57
-190 20z"/>
<path d="M2340 3934 c-33 -14 -50 -38 -50 -71 0 -68 84 -106 186 -83 65 15 74
24 74 81 0 47 -1 48 -37 59 -48 13 -153 22 -173 14z"/>
<path d="M7625 4226 c-38 -17 -60 -41 -80 -89 l-15 -37 145 0 c140 0 145 1
145 20 0 39 -30 81 -73 101 -49 22 -81 23 -122 5z"/>
</g>
</svg>
